<?xml version="1.0" encoding="UTF-8" standalone="no" ?>
<!DOCTYPE svg PUBLIC "-//W3C//DTD SVG 1.1//EN" "http://www.w3.org/Graphics/SVG/1.1/DTD/svg11.dtd">
<svg xmlns="http://www.w3.org/2000/svg" xmlns:xlink="http://www.w3.org/1999/xlink" version="1.1" width="1080" height="1080" viewBox="0 0 1080 1080" xml:space="preserve">
<desc>Created with Fabric.js 5.2.4</desc>
<defs>
</defs>
<g transform="matrix(1 0 0 1 540 540)" id="56ecb188-8d12-4aa0-9588-f0f4b8ce5d39"  >
</g>
<g transform="matrix(1 0 0 1 540 540)" id="f129f54c-cd8d-4f14-bd9a-765ed14d6334"  >
<rect style="stroke: none; stroke-width: 1; stroke-dasharray: none; stroke-linecap: butt; stroke-dashoffset: 0; stroke-linejoin: miter; stroke-miterlimit: 4; fill: rgb(255,255,255); fill-rule: nonzero; opacity: 1; visibility: hidden;" vector-effect="non-scaling-stroke"  x="-540" y="-540" rx="0" ry="0" width="1080" height="1080" />
</g>
<g transform="matrix(1 0 0 1 548 533)"  >
<path style="stroke: rgb(129,129,129); stroke-opacity: 0; stroke-width: 2; stroke-dasharray: none; stroke-linecap: butt; stroke-dashoffset: 0; stroke-linejoin: miter; stroke-miterlimit: 4; fill: rgb(0,0,0); fill-rule: nonzero; opacity: 1;" vector-effect="non-scaling-stroke"  transform=" translate(-242, -299)" d="M 295.25 356.21 Q 294.33 356.21 294.61 355.33 C 309.86 307.2 353.05 275.19 403.64 274.41 C 403.840321755495 274.40458211767105 403.9999229512834 274.24498092188264 404 274.05 L 404 209.49 C 404.00003207534303 209.37685461620816 403.9544121325085 209.26848209461227 403.8734706169043 209.18942293983608 C 403.7925291013001 209.1103637850599 403.68311331299526 209.06730605763593 403.57 209.07 Q 353.64 209.42 311.79 234.56 C 267.58 261.12 237.1 304.94 227.19 355.86 C 227.14782611617616 356.0573954970513 226.9772610878884 356.19883966685086 226.78 356.2 L 145.56 356.2 Q 144.53 356.2 144.68 355.18 Q 155.05 281.96 199.91 225.82 Q 235.04 181.86 285.21 155.97 C 321.86 137.05 361.8 127.76 403.43 127.29 Q 404 127.29 404 126.72 L 404 62.52 Q 404 61.79 403.26 61.79 Q 333.39 62.23 271.04 90.1 C 180.35 130.63 111.32 211.49 86.95 308.16 Q 76.77 348.53 76.77 390.23 Q 76.76 463.16 76.76 535.52 C 76.75999999999999 535.7056515428877 76.83269621985212 535.883699281917 76.96209632098127 536.0149747468306 C 77.09149642211041 536.1462502117442 77.26700062201071 536.22 77.45 536.22 L 141.81 536.22 Q 142.34 536.22 142.34 535.69 L 142.36 422.06 C 142.36 421.8832688800542 142.50774603255584 421.74 142.69 421.74 L 407 421.73 C 407.0609997926631 421.73 407.11950119262985 421.70576792671596 407.16263455967294 421.66263455967294 C 407.20576792671596 421.61950119262985 407.23 421.5609997926631 407.23 421.5 L 407.22 356.96 C 407.22 356.75843546772194 407.1399288013223 356.5651264939187 406.9974011537018 356.4225988462982 C 406.8548735060813 356.28007119867766 406.661564532278 356.2 406.46 356.2 L 295.25 356.21" stroke-linecap="round" />
</g>
<g transform="matrix(1 0 0 1 562.78 729.25)"  >
<path style="stroke: rgb(129,129,129); stroke-opacity: 0; stroke-width: 2; stroke-dasharray: none; stroke-linecap: butt; stroke-dashoffset: 0; stroke-linejoin: miter; stroke-miterlimit: 4; fill: rgb(0,0,0); fill-rule: nonzero; opacity: 1;" vector-effect="non-scaling-stroke"  transform=" translate(-256.78, -495.25)" d="M 289.5 454.83 C 289.5 454.68413093058825 289.44205373779903 454.54423627849377 289.3389087296526 454.4410912703474 C 289.2357637215062 454.33794626220094 289.0958690694117 454.28 288.95 454.28 L 224.61 454.28 C 224.46413093058825 454.28 224.32423627849383 454.33794626220094 224.22109127034742 454.4410912703474 C 224.11794626220097 454.54423627849377 224.06 454.68413093058825 224.06 454.83 L 224.06 535.67 C 224.05999999999997 535.8158690694117 224.11794626220095 535.9557637215062 224.2210912703474 536.0589087296526 C 224.3242362784938 536.162053737799 224.46413093058825 536.22 224.61 536.22 L 288.95 536.22 C 289.0958690694118 536.22 289.2357637215062 536.162053737799 289.33890872965264 536.0589087296526 C 289.44205373779903 535.9557637215062 289.5 535.8158690694117 289.5 535.67 L 289.5 454.83" stroke-linecap="round" />
</g>
</svg>